<?xml version="1.0" encoding="utf-8"?>
<svg viewBox="9.435 12.805 224.355 63.955" xmlns="http://www.w3.org/2000/svg">
  <rect id="backgroundrect" width="1920" height="929" x="-57.418" y="-296.66" fill="none" stroke="none"/>
  <desc>Created with Fabric.js 5.2.4</desc>
  <g class="currentLayer" style="" transform="matrix(0.267812, 0, 0, 0.267812, -28.601145, -86.844246)">
    <title>Layer 1</title>
    <g id="62674ff9-0fae-4ea9-890c-d4554353c9fc"/>
    <g id="svg_2" class="">
      <path style="stroke: none; stroke-width: 1; stroke-dasharray: none; stroke-linecap: butt; stroke-dashoffset: 0; stroke-linejoin: miter; stroke-miterlimit: 4; fill: rgb(27,106,240); fill-rule: nonzero; opacity: 1;" vector-effect="non-scaling-stroke" d="M848.0190501159667,522.4690501159669 M831.2259001159667,522.4690501159669 C831.2259001159667,531.7436507625878 838.7444494693458,539.2622001159668 848.0190501159667,539.2622001159668 C857.2936507625877,539.2622001159668 864.8122001159668,531.7436507625878 864.8122001159668,522.4690501159669 C864.8122001159668,513.1944494693458 857.2936507625877,505.67590011596684 848.0190501159667,505.67590011596684 C838.7444494693458,505.67590011596684 831.2259001159667,513.1944494693458 831.2259001159667,522.4690501159669 " stroke-linecap="round" stroke-width="0" id="svg_3"/>
    </g>
    <g id="svg_4" class="">
      <path style="stroke: none; stroke-width: 1; stroke-dasharray: none; stroke-linecap: butt; stroke-dashoffset: 0; stroke-linejoin: miter; stroke-miterlimit: 4; fill: rgb(247,44,31); fill-rule: nonzero; opacity: 1;" vector-effect="non-scaling-stroke" d="M297.8719998111725,586.4010015106201 Q290.5459998111725,586.4010015106201 287.3779998111725,583.13400151062 Q284.2099998111725,579.8670015106201 284.2099998111725,570.75900151062 L284.2099998111725,570.75900151062 Q284.2099998111725,564.6210015106201 285.4969998111725,555.01800151062 Q286.7839998111725,545.4150015106201 289.7539998111725,528.58500151062 L289.7539998111725,528.58500151062 Q294.9019998111725,497.4990015106201 297.8719998111725,474.72900151062004 L297.8719998111725,474.72900151062004 Q299.6539998111725,460.47300151062007 299.6539998111725,450.96900151062005 L299.6539998111725,450.96900151062005 Q299.6539998111725,442.0590015106201 293.11999981117253,442.0590015106201 L293.11999981117253,442.0590015106201 Q287.9719998111725,442.0590015106201 280.74499981117253,447.30600151062004 Q273.51799981117256,452.5530015106201 264.8059998111725,464.03700151062003 L264.8059998111725,464.03700151062003 Q262.0339998111725,467.7990015106201 258.66799981117254,467.7990015106201 L258.66799981117254,467.7990015106201 Q255.8959998111725,467.7990015106201 253.81699981117248,465.1260015106201 Q251.73799981117253,462.4530015106201 251.73799981117253,459.08700151062004 L251.73799981117253,459.08700151062004 Q251.73799981117253,455.91900151062003 253.0249998111725,452.65200151062004 Q254.31199981117248,449.38500151062004 257.2819998111725,445.2270015106201 L257.2819998111725,445.2270015106201 Q266.78599981117253,431.96100151062006 278.4679998111725,424.73400151062003 Q290.1499998111725,417.50700151062006 301.8319998111725,417.50700151062006 L301.8319998111725,417.50700151062006 Q312.7219998111725,417.50700151062006 318.5629998111725,424.43700151062006 Q324.4039998111725,431.36700151062007 324.4039998111725,444.63300151062003 L324.4039998111725,444.63300151062003 Q324.4039998111725,449.97900151062004 323.4139998111725,457.20600151062 Q322.4239998111725,464.43300151062004 321.6319998111725,468.9870015106201 Q320.8399998111725,473.54100151062005 320.4439998111725,475.32300151062003 L320.4439998111725,475.32300151062003 Q331.7299998111725,443.04900151062003 345.78799981117254,430.2780015106201 Q359.84599981117253,417.50700151062006 376.6759998111725,417.50700151062006 L376.6759998111725,417.50700151062006 Q389.5459998111725,417.50700151062006 396.97099981117253,426.61500151062006 Q404.3959998111725,435.72300151062007 404.3959998111725,452.35500151062 L404.3959998111725,452.35500151062 Q404.3959998111725,458.88900151062006 402.6139998111725,468.59100151062006 L402.6139998111725,468.59100151062006 Q412.5139998111725,441.26700151062005 425.7799998111725,429.38700151062005 Q439.0459998111725,417.50700151062006 456.2719998111725,417.50700151062006 L456.2719998111725,417.50700151062006 Q470.13199981117253,417.50700151062006 477.5569998111725,426.41700151062 Q484.9819998111725,435.32700151062005 484.9819998111725,451.36500151062006 L484.9819998111725,451.36500151062006 Q484.9819998111725,460.07700151062005 482.40799981117254,472.55100151062004 L482.40799981117254,472.55100151062004 L470.3299998111725,529.1790015106201 Q468.3499998111725,539.0790015106201 468.3499998111725,546.2070015106201 L468.3499998111725,546.2070015106201 Q468.3499998111725,554.52300151062 472.2109998111725,558.68100151062 Q476.07199981117253,562.83900151062 483.0019998111725,562.83900151062 L483.0019998111725,562.83900151062 Q489.53599981117253,562.83900151062 495.7729998111725,558.48300151062 Q502.0099998111725,554.1270015106201 510.5239998111725,544.0290015106201 L510.5239998111725,544.0290015106201 Q512.8999998111725,541.2570015106201 515.8699998111725,541.2570015106201 L515.8699998111725,541.2570015106201 Q518.4439998111725,541.2570015106201 519.9289998111725,543.63300151062 Q521.4139998111725,546.00900151062 521.4139998111725,550.16700151062 L521.4139998111725,550.16700151062 Q521.4139998111725,557.88900151062 517.6519998111725,562.4430015106201 L517.6519998111725,562.4430015106201 Q507.3559998111725,574.91700151062 497.2579998111725,580.6590015106201 Q487.1599998111725,586.4010015106201 476.07199981117253,586.4010015106201 L476.07199981117253,586.4010015106201 Q459.2419998111725,586.4010015106201 449.73799981117253,576.40200151062 Q440.2339998111725,566.40300151062 440.2339998111725,549.5730015106201 L440.2339998111725,549.5730015106201 Q440.2339998111725,537.8910015106201 444.9859998111725,515.71500151062 L444.9859998111725,515.71500151062 L452.9059998111725,479.48100151062005 Q453.3019998111725,477.69900151062006 454.2919998111725,473.14500151062003 Q455.2819998111725,468.59100151062006 455.8759998111725,464.53200151062003 Q456.4699998111725,460.47300151062007 456.4699998111725,456.51300151062003 L456.4699998111725,456.51300151062003 Q456.4699998111725,449.5830015106201 453.7969998111725,446.11800151062005 Q451.1239998111725,442.6530015106201 446.1739998111725,442.6530015106201 L446.1739998111725,442.6530015106201 Q436.8679998111725,442.6530015106201 426.6709998111725,454.63200151062006 Q416.47399981117246,466.61100151062004 407.2669998111725,494.33100151062007 Q398.0599998111725,522.05100151062 392.3179998111725,566.40300151062 L392.3179998111725,566.40300151062 Q390.93199981117255,578.28300151062 387.4669998111725,582.3420015106201 Q384.0019998111725,586.4010015106201 376.2799998111725,586.4010015106201 L376.2799998111725,586.4010015106201 Q369.54799981117253,586.4010015106201 366.47899981117246,583.23300151062 Q363.4099998111725,580.06500151062 363.4099998111725,571.3530015106201 L363.4099998111725,571.3530015106201 Q363.4099998111725,563.23500151062 365.5879998111725,550.0680015106201 Q367.7659998111725,536.9010015106201 371.1319998111725,519.08100151062 L371.1319998111725,519.08100151062 Q380.23999981117254,471.1650015106201 380.23999981117254,457.30500151062006 L380.23999981117254,457.30500151062006 Q380.23999981117254,449.78100151062006 377.3689998111725,446.2170015106201 Q374.4979998111725,442.6530015106201 368.7559998111725,442.6530015106201 L368.7559998111725,442.6530015106201 Q359.0539998111725,442.6530015106201 348.7579998111725,453.64200151062005 Q338.4619998111725,464.6310015106201 328.6609998111725,492.64800151062 Q318.85999981117254,520.6650015106201 312.3259998111725,568.38300151062 L312.3259998111725,568.38300151062 Q310.93999981117247,578.4810015106201 308.2669998111725,582.44100151062 Q305.59399981117247,586.4010015106201 297.8719998111725,586.4010015106201 L297.8719998111725,586.4010015106201 zM560.6179998111725,586.99500151062 Q534.2839998111725,586.99500151062 518.4439998111725,576.9960015106201 Q502.6039998111725,566.9970015106201 502.6039998111725,546.4050015106201 L502.6039998111725,546.4050015106201 Q502.6039998111725,535.5150015106201 506.3659998111725,529.77300151062 Q510.1279998111725,524.0310015106201 517.4539998111725,524.0310015106201 L517.4539998111725,524.0310015106201 Q522.7999998111725,524.0310015106201 526.1659998111725,526.8030015106201 Q529.5319998111726,529.57500151062 529.5319998111726,533.93100151062 L529.5319998111726,533.93100151062 Q529.5319998111726,537.8910015106201 528.9379998111725,540.8610015106201 L528.9379998111725,540.8610015106201 Q528.9379998111725,541.65300151062 528.6409998111725,543.63300151062 Q528.3439998111725,545.61300151062 528.3439998111725,547.79100151062 L528.3439998111725,547.79100151062 Q528.3439998111725,556.70100151062 537.3529998111725,561.05700151062 Q546.3619998111725,565.41300151062 562.5979998111725,565.41300151062 L562.5979998111725,565.41300151062 Q579.4279998111725,565.41300151062 588.9319998111725,559.37400151062 Q598.4359998111725,553.33500151062 598.4359998111725,542.44500151062 L598.4359998111725,542.44500151062 Q598.4359998111725,535.7130015106201 594.0799998111725,530.8620015106201 Q589.7239998111725,526.0110015106201 583.1899998111725,522.74400151062 Q576.6559998111725,519.4770015106201 564.7759998111725,514.72500151062 L564.7759998111725,514.72500151062 Q549.5299998111725,508.7850015106201 539.9269998111725,503.4390015106201 Q530.3239998111725,498.09300151062007 523.4929998111725,488.8860015106201 Q516.6619998111726,479.6790015106201 516.6619998111726,466.01700151062005 L516.6619998111726,466.01700151062005 Q516.6619998111726,451.7610015106201 524.2849998111725,440.67300151062005 Q531.9079998111725,429.58500151062003 546.2629998111726,423.44700151062005 Q560.6179998111725,417.3090015106201 580.0219998111725,417.3090015106201 L580.0219998111725,417.3090015106201 Q594.4759998111725,417.3090015106201 606.5539998111725,421.56600151062 Q618.6319998111725,425.8230015106201 625.8589998111726,434.5350015106201 Q633.0859998111725,443.24700151062007 633.0859998111725,455.91900151062003 L633.0859998111725,455.91900151062003 Q633.0859998111725,468.39300151062 629.3239998111725,474.72900151062004 Q625.5619998111725,481.06500151062005 618.2359998111725,481.06500151062005 L618.2359998111725,481.06500151062005 Q613.0879998111725,481.06500151062005 609.6229998111726,477.89700151062004 Q606.1579998111725,474.72900151062004 606.1579998111725,470.37300151062004 L606.1579998111725,470.37300151062004 Q606.1579998111725,466.61100151062004 606.7519998111725,463.44300151062004 L606.7519998111725,463.44300151062004 Q607.3459998111725,457.50300151062004 607.3459998111725,455.91900151062003 L607.3459998111725,455.91900151062003 Q607.3459998111725,447.60300151062006 599.2279998111725,443.24700151062007 Q591.1099998111725,438.8910015106201 579.0319998111725,438.8910015106201 L579.0319998111725,438.8910015106201 Q562.0039998111725,438.8910015106201 552.9949998111725,445.12800151062004 Q543.9859998111725,451.36500151062006 543.9859998111725,462.65100151062006 L543.9859998111725,462.65100151062006 Q543.9859998111725,470.17500151062006 548.6389998111725,475.52100151062007 Q553.2919998111726,480.86700151062007 560.2219998111725,484.43100151062004 Q567.1519998111725,487.99500151062006 579.6259998111725,492.94500151062005 L579.6259998111725,492.94500151062005 Q594.6739998111725,499.0830015106201 603.7819998111725,504.03300151062007 Q612.8899998111725,508.98300151062006 619.3249998111726,517.4970015106201 Q625.7599998111725,526.0110015106201 625.7599998111725,538.48500151062 L625.7599998111725,538.48500151062 Q625.7599998111725,561.84900151062 608.0389998111725,574.42200151062 Q590.3179998111725,586.99500151062 560.6179998111725,586.99500151062 L560.6179998111725,586.99500151062 zM825.9379998111725,541.2570015106201 Q828.5119998111725,541.2570015106201 829.9969998111726,543.63300151062 Q831.4819998111725,546.00900151062 831.4819998111725,550.16700151062 L831.4819998111725,550.16700151062 Q831.4819998111725,557.88900151062 827.7199998111724,562.4430015106201 L827.7199998111724,562.4430015106201 Q808.1179998111725,586.4010015106201 785.9419998111725,586.4010015106201 L785.9419998111725,586.4010015106201 Q766.7359998111725,586.4010015106201 755.2519998111725,571.55100151062 Q743.7679998111726,556.70100151062 743.7679998111726,528.9810015106201 L743.7679998111726,528.9810015106201 Q743.7679998111726,522.24900151062 744.3619998111725,515.51700151062 L744.3619998111725,515.51700151062 Q731.2939998111725,517.89300151062 715.8499998111724,519.08100151062 L715.8499998111724,519.08100151062 Q705.5539998111725,519.87300151062 701.7919998111724,520.07100151062 L701.7919998111724,520.07100151062 Q697.8319998111725,540.26700151062 690.7039998111725,569.57100151062 L690.7039998111725,569.57100151062 Q686.5459998111725,586.79700151062 674.8639998111726,586.79700151062 L674.8639998111726,586.79700151062 Q662.1919998111725,586.79700151062 662.1919998111725,575.3130015106201 L662.1919998111725,575.3130015106201 Q662.1919998111725,572.73900151062 663.1819998111725,568.18500151062 L663.1819998111725,568.18500151062 Q669.9139998111725,541.0590015106201 673.8739998111726,522.24900151062 L673.8739998111726,522.24900151062 L664.3699998111725,522.6450015106201 Q657.8359998111725,522.6450015106201 654.8659998111725,520.36800151062 Q651.8959998111725,518.0910015106201 651.8959998111725,512.9430015106201 L651.8959998111725,512.9430015106201 Q651.8959998111725,506.40900151062004 655.6579998111725,503.34000151062 Q659.4199998111725,500.27100151062007 668.1319998111725,499.87500151062005 L668.1319998111725,499.87500151062005 L678.6259998111725,499.47900151062004 Q683.7739998111725,471.56100151062003 683.7739998111725,456.90900151062004 L683.7739998111725,456.90900151062004 Q683.7739998111725,447.60300151062006 681.0019998111725,444.2370015106201 Q678.2299998111725,440.8710015106201 673.6759998111725,440.8710015106201 L673.6759998111725,440.8710015106201 Q659.8159998111726,440.8710015106201 642.3919998111725,464.03700151062003 L642.3919998111725,464.03700151062003 Q639.8179998111725,467.4030015106201 636.6499998111725,467.4030015106201 L636.6499998111725,467.4030015106201 Q633.8779998111725,467.4030015106201 631.8979998111724,464.82900151062006 Q629.9179998111725,462.25500151062005 629.9179998111725,458.29500151062007 L629.9179998111725,458.29500151062007 Q629.9179998111725,452.15700151062003 634.8679998111725,445.2270015106201 L634.8679998111725,445.2270015106201 Q643.5799998111725,433.14900151062005 656.8459998111725,425.3280015106201 Q670.1119998111725,417.50700151062006 683.7739998111725,417.50700151062006 L683.7739998111725,417.50700151062006 Q696.6439998111725,417.50700151062006 703.6729998111725,426.3180015106201 Q710.7019998111725,435.12900151062 710.7019998111725,453.7410015106201 L710.7019998111725,453.7410015106201 Q710.7019998111725,470.17500151062006 705.9499998111725,498.29100151062005 L705.9499998111725,498.29100151062005 L725.3539998111725,497.30100151062004 Q737.8279998111725,496.70700151062005 746.7379998111726,495.32100151062 L746.7379998111726,495.32100151062 Q750.3019998111725,473.54100151062005 757.6279998111725,454.53300151062007 Q764.9539998111725,435.5250015106201 775.8439998111725,423.6450015106201 Q786.7339998111725,411.76500151062004 800.1979998111725,411.76500151062004 L800.1979998111725,411.76500151062004 Q810.0979998111725,411.76500151062004 815.8399998111724,419.58600151062006 Q821.5819998111725,427.40700151062003 821.5819998111725,440.07900151062006 L821.5819998111725,440.07900151062006 Q821.5819998111725,489.18300151062004 771.4879998111726,508.19100151062 L771.4879998111726,508.19100151062 Q770.8939998111725,516.1110015106201 770.8939998111725,524.62500151062 L770.8939998111725,524.62500151062 Q770.8939998111725,545.4150015106201 776.0419998111724,554.1270015106201 Q781.1899998111725,562.83900151062 790.4959998111725,562.83900151062 L790.4959998111725,562.83900151062 Q798.6139998111726,562.83900151062 805.3459998111725,558.5820015106201 Q812.0779998111725,554.32500151062 820.5919998111725,544.0290015106201 L820.5919998111725,544.0290015106201 Q822.9679998111725,541.2570015106201 825.9379998111725,541.2570015106201 L825.9379998111725,541.2570015106201 zM799.2079998111725,428.9910015106201 Q794.8519998111726,428.9910015106201 790.0009998111725,436.91100151062005 Q785.1499998111724,444.83100151062 780.7939998111725,458.49300151062005 Q776.4379998111725,472.1550015106201 773.8639998111726,488.3910015106201 L773.8639998111726,488.3910015106201 Q789.7039998111725,481.8570015106201 797.2279998111726,469.77900151062005 Q804.7519998111725,457.7010015106201 804.7519998111725,438.6930015106201 L804.7519998111725,438.6930015106201 Q804.7519998111725,434.13900151062 803.1679998111725,431.56500151062005 Q801.5839998111725,428.9910015106201 799.2079998111725,428.9910015106201 L799.2079998111725,428.9910015106201 z" stroke-linecap="round" stroke-width="0" id="svg_5"/>
    </g>
    <g id="svg_6" class="">
      <path style="stroke: none; stroke-width: 1; stroke-dasharray: none; stroke-linecap: butt; stroke-dashoffset: 0; stroke-linejoin: miter; stroke-miterlimit: 4; fill: rgb(247,174,0); fill-rule: nonzero; opacity: 1;" vector-effect="non-scaling-stroke" d="M943.1156000566483,470.77899999999994 Q948.4616000566483,470.77899999999994 951.2336000566484,474.63999999999993 Q954.0056000566483,478.501 953.4116000566484,483.8469999999999 L953.4116000566484,483.8469999999999 Q952.0256000566483,494.34099999999995 941.3336000566483,494.34099999999995 L941.3336000566483,494.34099999999995 Q930.4436000566483,494.34099999999995 924.8996000566483,498.20199999999994 Q919.3556000566483,502.06299999999993 917.9696000566483,511.76499999999993 L917.9696000566483,511.76499999999993 Q916.7816000566482,520.8729999999999 914.2076000566483,542.4549999999999 L914.2076000566483,542.4549999999999 L913.0196000566483,551.959 Q910.6436000566483,569.5809999999999 899.0606000566484,578.2929999999999 Q887.4776000566483,587.0049999999999 868.4696000566483,587.0049999999999 L868.4696000566483,587.0049999999999 Q857.5796000566484,587.0049999999999 853.0256000566483,584.4309999999999 Q848.4716000566483,581.857 848.4716000566483,574.531 L848.4716000566483,574.531 Q848.4716000566483,570.5709999999999 851.7386000566484,567.799 Q855.0056000566483,565.0269999999999 860.7476000566483,565.0269999999999 L860.7476000566483,565.0269999999999 Q870.4496000566483,565.0269999999999 875.9936000566483,563.146 Q881.5376000566483,561.265 884.0126000566484,557.305 Q886.4876000566483,553.3449999999999 887.0816000566483,546.6129999999999 L887.0816000566483,546.6129999999999 Q887.8736000566483,535.3269999999999 890.8436000566483,514.7349999999999 L890.8436000566483,514.7349999999999 L891.6356000566483,508.00299999999993 Q894.0116000566483,489.58899999999994 911.4356000566484,482.2629999999999 L911.4356000566484,482.2629999999999 Q898.7636000566483,476.3229999999999 898.7636000566483,459.49299999999994 L898.7636000566483,459.49299999999994 Q898.7636000566483,457.5129999999999 899.1596000566483,452.76099999999997 L899.1596000566483,452.76099999999997 Q900.5456000566483,442.4649999999999 900.7436000566483,441.8709999999999 L900.7436000566483,441.8709999999999 Q902.3276000566483,431.179 902.9216000566483,424.84299999999996 L902.9216000566483,424.84299999999996 Q903.1196000566483,423.45699999999994 903.1196000566483,421.0809999999999 L903.1196000566483,421.0809999999999 Q903.1196000566483,412.96299999999997 898.3676000566483,409.79499999999996 Q893.6156000566483,406.62699999999995 881.3396000566484,406.62699999999995 L881.3396000566484,406.62699999999995 Q875.7956000566483,406.62699999999995 872.4296000566483,403.6569999999999 Q869.0636000566483,400.68699999999995 869.0636000566483,396.3309999999999 L869.0636000566483,396.3309999999999 Q869.0636000566483,390.1929999999999 874.0136000566483,387.1239999999999 Q878.9636000566483,384.05499999999995 890.8436000566483,384.05499999999995 L890.8436000566483,384.05499999999995 Q910.6436000566483,384.05499999999995 920.0486000566483,393.36099999999993 Q929.4536000566483,402.6669999999999 929.4536000566483,419.69499999999994 L929.4536000566483,419.69499999999994 Q929.4536000566483,425.04099999999994 929.0576000566483,427.81299999999993 L929.0576000566483,427.81299999999993 Q928.6616000566484,431.97099999999995 927.2756000566483,442.4649999999999 L927.2756000566483,442.4649999999999 Q927.0776000566483,444.24699999999996 925.6916000566483,454.54299999999995 L925.6916000566483,454.54299999999995 Q925.4936000566483,455.73099999999994 925.4936000566483,457.90899999999993 L925.4936000566483,457.90899999999993 Q925.4936000566483,464.64099999999996 929.7506000566483,467.7099999999999 Q934.0076000566482,470.77899999999994 943.1156000566483,470.77899999999994 L943.1156000566483,470.77899999999994 z" stroke-linecap="round" stroke-width="0" id="svg_7"/>
    </g>
    <g id="svg_8" class="">
      <path style="stroke: none; stroke-width: 1; stroke-dasharray: none; stroke-linecap: butt; stroke-dashoffset: 0; stroke-linejoin: miter; stroke-miterlimit: 4; fill: rgb(247,174,0); fill-rule: nonzero; opacity: 1;" vector-effect="non-scaling-stroke" d="M241.0044000377655,384.05499999999995 Q251.8944000377655,384.05499999999995 256.4484000377655,386.6289999999999 Q261.0024000377655,389.2029999999999 261.0024000377655,396.52899999999994 L261.0024000377655,396.52899999999994 Q261.0024000377655,400.4889999999999 257.7354000377655,403.26099999999997 Q254.4684000377655,406.0329999999999 248.7264000377655,406.0329999999999 L248.7264000377655,406.0329999999999 Q239.0244000377655,406.0329999999999 233.4804000377655,407.91399999999993 Q227.9364000377655,409.79499999999996 225.46140003776551,413.75499999999994 Q222.98640003776552,417.7149999999999 222.3924000377655,424.44699999999995 L222.3924000377655,424.44699999999995 Q221.7984000377655,432.56499999999994 219.2244000377655,451.5729999999999 L219.2244000377655,451.5729999999999 L218.6304000377655,456.9189999999999 Q216.2544000377655,475.33299999999997 198.83040003776551,482.65899999999993 L198.83040003776551,482.65899999999993 Q211.5024000377655,488.59899999999993 211.5024000377655,505.4289999999999 L211.5024000377655,505.4289999999999 Q211.5024000377655,507.40899999999993 211.10640003776552,512.161 L211.10640003776552,512.161 L209.3244000377655,524.4369999999999 Q206.9484000377655,541.861 206.5524000377655,546.217 L206.5524000377655,546.217 Q206.35440003776552,547.603 206.35440003776552,549.9789999999999 L206.35440003776552,549.9789999999999 Q206.35440003776552,558.097 211.10640003776552,561.265 Q215.8584000377655,564.433 228.1344000377655,564.433 L228.1344000377655,564.433 Q233.6784000377655,564.433 237.0444000377655,567.4029999999999 Q240.4104000377655,570.3729999999999 240.4104000377655,574.7289999999999 L240.4104000377655,574.7289999999999 Q240.4104000377655,580.867 235.4604000377655,583.9359999999999 Q230.51040003776552,587.0049999999999 218.6304000377655,587.0049999999999 L218.6304000377655,587.0049999999999 Q198.83040003776551,587.0049999999999 189.4254000377655,577.699 Q180.0204000377655,568.3929999999999 180.0204000377655,551.3649999999999 L180.0204000377655,551.3649999999999 Q180.0204000377655,546.0189999999999 180.4164000377655,543.247 L180.4164000377655,543.247 Q181.01040003776552,537.901 181.7034000377655,533.2479999999999 Q182.39640003776552,528.5949999999999 182.7924000377655,524.635 L182.7924000377655,524.635 L184.5744000377655,510.37899999999996 Q184.7724000377655,509.1909999999999 184.7724000377655,507.0129999999999 L184.7724000377655,507.0129999999999 Q184.7724000377655,500.28099999999995 180.51540003776552,497.21199999999993 Q176.2584000377655,494.1429999999999 167.1504000377655,494.1429999999999 L167.1504000377655,494.1429999999999 Q161.8044000377655,494.1429999999999 159.0324000377655,490.2819999999999 Q156.26040003776552,486.42099999999994 156.85440003776552,481.07499999999993 L156.85440003776552,481.07499999999993 Q158.2404000377655,470.58099999999996 168.93240003776552,470.58099999999996 L168.93240003776552,470.58099999999996 Q179.8224000377655,470.58099999999996 185.36640003776552,466.7199999999999 Q190.9104000377655,462.8589999999999 192.2964000377655,453.1569999999999 L192.2964000377655,453.1569999999999 Q192.4944000377655,452.1669999999999 195.2664000377655,429.5949999999999 L195.2664000377655,429.5949999999999 L196.4544000377655,419.10099999999994 Q198.83040003776551,401.4789999999999 210.4134000377655,392.76699999999994 Q221.9964000377655,384.05499999999995 241.0044000377655,384.05499999999995 L241.0044000377655,384.05499999999995 z" stroke-linecap="round" stroke-width="0" id="svg_9"/>
    </g>
  </g>
</svg>